<svg width="50" height="50" viewBox="0 0 50 50" fill="none" xmlns="http://www.w3.org/2000/svg">
<path fill-rule="evenodd" clip-rule="evenodd" d="M42.6777 7.32231C44.9736 9.61767 46.7762 12.2915 48.0353 15.2686C49.3387 18.3513 50 21.6252 50 25C50 28.3748 49.3393 31.6487 48.0353 34.7314C46.7756 37.7085 44.9736 40.3817 42.6777 42.6777C42.0514 43.304 41.3959 43.8924 40.7147 44.4441L40.7066 44.4505C38.8935 45.9184 36.8932 47.1203 34.7314 48.0347C31.6487 49.3381 28.3748 49.9994 25 49.9994C21.6252 49.9994 18.3513 49.3387 15.2686 48.0347C13.1074 47.1209 11.1065 45.9184 9.29343 44.4505L9.28526 44.4441C8.60412 43.8924 7.94863 43.304 7.32231 42.6777C5.02636 40.3817 3.22377 37.7085 1.96471 34.7314C0.661317 31.6487 0 28.3742 0 25C0 21.6258 0.661317 18.3513 1.96471 15.2686C3.22436 12.2915 5.02636 9.61826 7.32231 7.32231C9.61826 5.02636 12.2915 3.22377 15.2686 1.96471C18.3513 0.661317 21.6252 0 25 0C28.3748 0 31.6487 0.661317 34.7314 1.96471C37.7085 3.22436 40.3817 5.02636 42.6777 7.32231ZM41.5079 41.5073C43.6516 39.3629 45.3352 36.8664 46.5109 34.0864C47.728 31.209 48.3444 28.1509 48.3444 24.9994C48.3444 21.848 47.7274 18.7904 46.5103 15.913C45.3346 13.133 43.6516 10.6365 41.5073 8.49215C39.3629 6.34841 36.8664 4.66479 34.0864 3.48912C31.209 2.27204 28.1515 1.65504 25 1.65504C21.8485 1.65504 18.791 2.27204 15.9136 3.48912C13.1336 4.66479 10.6371 6.34783 8.49273 8.49215C6.34899 10.6365 4.66538 13.133 3.4897 15.913C2.27262 18.7904 1.65563 21.848 1.65563 24.9994C1.65563 28.1509 2.27262 31.2084 3.4897 34.0858C4.66538 36.8658 6.34841 39.3624 8.49273 41.5067C8.65777 41.6723 8.82572 41.8338 8.99543 41.9936C9.11381 38.4561 10.5461 35.1472 13.0613 32.632C15.6891 30.0042 19.1829 28.5568 22.8988 28.5568H27.1018C30.8183 28.5568 34.3115 30.0042 36.9393 32.632C39.4545 35.1472 40.8874 38.4561 41.0052 41.9936C41.1743 41.8338 41.3428 41.6723 41.5079 41.5073ZM16.1428 17.82C16.1428 12.9359 20.1166 8.96277 25 8.96277C29.8835 8.96277 33.8567 12.9359 33.8567 17.82C33.8567 22.7041 29.8841 26.6772 25 26.6772C20.116 26.6772 16.1428 22.7041 16.1428 17.82Z" fill="#C1B9FC"/>
</svg>
